<svg width="64" height="33" viewBox="0 0 64 33" fill="none" xmlns="http://www.w3.org/2000/svg">
<path d="M10.0881 32.6814V25.164H5.26334V27.2026H7.64437V27.3938C7.64437 29.305 6.95512 30.7065 5.32599 30.7065C3.88484 30.7065 2.8823 29.3687 2.8823 25.9285C2.8823 22.4884 3.75953 21.1505 5.38865 21.1505C6.57917 21.1505 7.20576 21.9787 7.33108 23.444L10.0254 23.0617C9.90008 21.2142 8.70957 18.8571 5.38865 18.8571C1.87976 18.7934 0 21.469 0 25.8648C0 30.5791 2.19306 32.9362 5.13802 32.9362C6.45385 32.9362 7.64437 32.2355 8.08298 30.9613H8.14564L8.45893 32.6177H10.0881V32.6814ZM18.735 29.7509C18.4843 30.7065 17.8577 31.025 17.1058 31.025C15.978 31.025 15.2261 30.3243 15.2261 28.6679H21.116C21.1787 28.3494 21.1787 28.0308 21.1787 27.6486C21.1787 24.8455 19.5495 22.998 17.1058 22.998C14.4742 22.998 12.7824 24.9092 12.7824 27.9034C12.7824 30.8976 14.3489 32.8725 17.1685 32.8725C19.5495 32.8725 20.6774 31.3436 20.9907 29.942L18.735 29.7509ZM15.2887 27.1389C15.2887 25.8011 15.978 24.9729 17.0432 24.9729C18.2337 24.9729 18.735 25.8011 18.735 27.1389H15.2887ZM26.1287 24.527C26.1287 24.1447 26.066 23.6988 26.066 23.3165H23.685C23.7477 24.2721 23.8103 25.3551 23.8103 26.247V32.6814H26.3167V27.4575C26.3167 25.6737 27.1939 25.1003 28.0085 25.1003C28.5097 25.1003 28.8857 25.3551 29.0737 25.61C29.3243 25.9285 29.387 26.3745 29.387 27.0752V32.6177H31.8933V26.6293C31.8933 25.61 31.6427 24.7818 31.2041 24.1447C30.7028 23.444 29.9509 22.998 28.6351 22.998C27.6952 23.0617 26.5673 23.6351 26.1287 24.527ZM40.4149 29.7509C40.1643 30.7065 39.5377 31.025 38.7858 31.025C37.6579 31.025 36.906 30.3243 36.906 28.6679H42.7959C42.8586 28.3494 42.8586 28.0308 42.8586 27.6486C42.8586 24.8455 41.2295 22.998 38.7858 22.998C36.1541 22.998 34.4623 24.9092 34.4623 27.9034C34.4623 30.8976 36.0288 32.8725 38.8484 32.8725C41.2295 32.8725 42.3573 31.3436 42.6706 29.942L40.4149 29.7509ZM36.906 27.1389C36.906 25.8011 37.5953 24.9729 38.6605 24.9729C39.851 24.9729 40.3522 25.8011 40.3522 27.1389H36.906ZM40.8535 22.2972L41.3548 21.2779L36.9687 18.4111L36.0914 20.386L40.8535 22.2972ZM46.9314 23.3165H44.2371L47.6207 32.6814H49.8764L53.2599 23.3165H50.6909L49.4378 27.4575C49.1871 28.3494 48.9992 28.9864 48.8112 29.8146H48.7485C48.5605 28.9864 48.4352 28.3494 48.1219 27.4575L46.9314 23.3165ZM60.779 29.7509C60.5284 30.7065 59.9018 31.025 59.1499 31.025C58.022 31.025 57.2701 30.3243 57.2701 28.6679H63.16C63.2227 28.3494 63.2227 28.0308 63.2227 27.6486C63.2227 24.8455 61.5936 22.998 59.1499 22.998C56.5182 22.998 54.8264 24.9092 54.8264 27.9034C54.8264 30.8976 56.3929 32.8725 59.2125 32.8725C61.5936 32.8725 62.7214 31.3436 63.0347 29.942L60.779 29.7509ZM57.2701 27.1389C57.2701 25.8011 57.9594 24.9729 59.0246 24.9729C60.2151 24.9729 60.7163 25.8011 60.7163 27.1389H57.2701Z" fill="black"/>
<path d="M13.2204 7.26255V6.17954H1.00195V7.26255H13.2204ZM26.88 13.5695V0H24.0604V5.47877H20.3009V0H17.4812V13.5695H20.3009V7.7722H24.0604V13.5695H26.88ZM38.9732 13.5695V11.2124H33.4592V7.64479H37.9706V5.47877H33.4592V2.29344H38.9732V0H30.6395V13.5695H38.9732ZM51.8182 13.5695L47.6201 0H44.9257L40.7276 13.5695H43.5473L44.2365 11.0849H48.184L48.8732 13.5695H51.8182ZM47.6201 8.85521H44.8631L45.5523 6.11583C45.803 5.28765 46.0536 4.26834 46.2416 3.24903C46.4296 4.26834 46.7429 5.22394 46.9308 6.05212L47.6201 8.85521ZM63.974 6.56178C63.974 3.8861 63.0968 1.33784 60.7158 0.382239C60.1518 0.127413 59.3999 0 58.5227 0H54.1366V13.5695H58.5227C59.3999 13.5695 60.0892 13.4421 60.7158 13.251C63.1594 12.2954 63.974 9.81081 63.974 6.56178ZM61.1544 6.7529C61.1544 9.36487 60.4651 11.2761 58.5227 11.2761H56.9562V2.22973H58.2721C60.6531 2.22973 61.1544 4.52317 61.1544 6.7529Z" fill="black"/>
</svg>
