<svg width="102" height="29" viewBox="0 0 102 29" fill="none" xmlns="http://www.w3.org/2000/svg">
<g clip-path="url(#clip0_127_1735)">
<path d="M30.2723 23.3698C30.2302 23.3698 30.1804 23.3737 30.1192 23.3776L30.0963 23.3465V23.3271C30.1078 23.0315 30.1192 22.6504 30.1192 21.8571C30.1192 21.2737 30.1192 20.6515 30.0771 20.1109L30.1001 20.0876C30.3182 20.0526 30.3603 20.0448 30.5821 19.9982L30.6089 20.0254C30.5783 20.5776 30.5783 21.1337 30.5783 21.6898C30.5783 22.6154 30.5898 22.9343 30.6128 23.3348L30.586 23.3621C30.4406 23.3621 30.3717 23.3659 30.2799 23.3698H30.2723Z" fill="black"/>
<path d="M10.2177 23.3776C10.4664 23.3659 10.4817 23.3659 10.7189 23.3659L10.7457 23.3348C10.7189 22.9459 10.6998 22.6348 10.6998 21.8143C10.6998 21.0754 10.7036 20.8109 10.7189 20.4026L10.696 20.3754C10.5123 20.3831 10.4588 20.3831 10.2981 20.387H10.2063L10.1833 20.4181C10.2063 20.667 10.2063 20.7643 10.2139 21.4604V21.5731C10.0073 21.5809 9.81986 21.5848 9.41433 21.5848C9.19244 21.5848 9.06619 21.5848 8.91316 21.577C8.87108 21.577 8.82134 21.577 8.77161 21.577C8.77161 21.0909 8.77926 20.772 8.78308 20.5309V20.4026L8.76396 20.3754C8.59562 20.3831 8.52676 20.3831 8.39286 20.387H8.27043L8.24365 20.4181V20.4648C8.25896 20.6981 8.27043 20.9081 8.27043 21.4448C8.27043 22.7243 8.26661 22.9381 8.24748 23.3543L8.27426 23.3854C8.51911 23.3737 8.53058 23.3737 8.77543 23.3737L8.79839 23.3426C8.77543 23.0276 8.76396 22.7437 8.76778 21.9426C9.07384 21.9387 9.45259 21.9348 9.79691 21.9348C9.91551 21.9348 10.0035 21.9348 10.0762 21.9348C10.1259 21.9348 10.1718 21.9348 10.2139 21.9348C10.2177 22.3704 10.2063 22.8798 10.191 23.3543L10.2177 23.3854V23.3776Z" fill="black"/>
<path fill-rule="evenodd" clip-rule="evenodd" d="M13.2171 21.5498C13.2477 21.6665 13.2477 21.8998 13.2477 22.0787V22.4948C13.2477 23.0121 13.2516 23.0626 13.2745 23.3271V23.3387L13.2516 23.3621C13.1062 23.3621 13.045 23.366 12.9493 23.3698H12.869L12.8078 23.3776L12.7886 23.3504V23.1987C12.7007 23.2648 12.5055 23.4126 12.1727 23.4126C11.7289 23.4126 11.4229 23.1248 11.4229 22.7087C11.4229 22.1448 11.9202 21.9621 12.7121 21.8726L12.7886 21.8648C12.7886 21.7521 12.7886 21.6704 12.7504 21.6043C12.7045 21.5265 12.605 21.4487 12.3831 21.4487C12.1038 21.4487 11.9087 21.5304 11.7251 21.6043L11.7098 21.6121L11.6754 21.5926C11.6792 21.4798 11.683 21.4254 11.6868 21.3826C11.6868 21.3476 11.6868 21.3243 11.6907 21.2854L11.7174 21.2621C11.9661 21.1765 12.2224 21.1221 12.4826 21.1221C12.8116 21.1221 13.1291 21.2271 13.221 21.5576L13.2171 21.5498ZM12.7925 22.8837V22.1798L12.7542 22.1876C12.3066 22.2498 11.8934 22.3121 11.8934 22.6854C11.8934 22.7087 11.8934 23.0704 12.3143 23.0704C12.5821 23.0704 12.7389 22.9343 12.7925 22.8876V22.8837Z" fill="black"/>
<path d="M16.0174 21.1842C16.0097 21.5031 16.0059 21.8025 16.0059 22.1448C16.0059 22.662 16.0174 22.977 16.0289 23.1559C16.0289 23.2142 16.0327 23.2725 16.0365 23.3348L16.0174 23.362C15.8605 23.362 15.7993 23.3659 15.6922 23.3736H15.6386H15.5659L15.5392 23.3503V23.1753L15.5315 23.1831C15.4282 23.257 15.1987 23.4125 14.8505 23.4125C14.6784 23.4125 14.4871 23.3736 14.3455 23.2686C14.0701 23.0548 14.0624 22.7048 14.0586 22.382V22.3625V22.102V21.9542C14.0509 21.4875 14.0471 21.4136 14.0356 21.2075L14.0586 21.1764H14.0854C14.269 21.1764 14.3149 21.1725 14.5139 21.157L14.5406 21.1881L14.5215 22.1098C14.5215 22.1448 14.5215 22.1798 14.5215 22.2148C14.5215 22.2886 14.5215 22.3742 14.5215 22.5103C14.5253 22.6892 14.5368 23.0664 14.9806 23.0664C15.2408 23.0664 15.4282 22.9264 15.5315 22.8486C15.5353 22.6192 15.5353 22.4286 15.5353 22.1836C15.5353 21.5964 15.5315 21.4798 15.5047 21.2036L15.5315 21.1764H15.6004C15.7496 21.1725 15.8108 21.1686 15.9868 21.1609L16.0136 21.192L16.0174 21.1842Z" fill="black"/>
<path d="M17.8348 23.2843C17.8348 23.1909 17.8386 23.1559 17.8501 23.0315L17.8195 23.0082C17.7697 23.0237 17.7009 23.047 17.6052 23.047C17.3833 23.047 17.3451 22.9498 17.3451 22.6426C17.3451 22.5843 17.3451 22.3432 17.3412 22.2926L17.3489 21.507C17.5019 21.507 17.567 21.507 17.6511 21.5109H17.7162C17.7468 21.5109 17.785 21.5109 17.8309 21.5148L17.8539 21.4876C17.8539 21.3515 17.8577 21.3009 17.8654 21.2037V21.1882L17.8462 21.1609C17.6473 21.1687 17.5708 21.1687 17.456 21.1726H17.3566C17.3566 20.9004 17.3566 20.8265 17.3719 20.6165V20.5348L17.3451 20.5154C17.1423 20.5737 17.0926 20.5854 16.8936 20.632L16.8707 20.6632L16.8822 20.9043C16.8822 20.9937 16.8822 21.087 16.886 21.1726C16.7865 21.1726 16.7291 21.1726 16.6717 21.1726C16.645 21.1726 16.6144 21.1726 16.5837 21.1726L16.557 21.1959C16.557 21.332 16.557 21.367 16.5493 21.4993L16.5684 21.5265C16.6029 21.5265 16.6258 21.5265 16.6488 21.5265H16.6947C16.7483 21.5226 16.7865 21.5187 16.886 21.5187L16.8783 22.4482C16.8783 22.9459 16.8783 23.047 16.9587 23.1715C17.0964 23.3893 17.3757 23.3893 17.479 23.3893C17.6435 23.3893 17.72 23.3737 17.8118 23.3504L17.8348 23.3232V23.2843Z" fill="black"/>
<path fill-rule="evenodd" clip-rule="evenodd" d="M20.222 22.8292C20.1646 22.8759 20.0689 22.9537 19.9044 23.0159C19.782 23.0587 19.6481 23.0781 19.5218 23.0781C19.3841 23.0781 19.1316 23.0548 18.9518 22.8487C18.8026 22.6776 18.7873 22.4676 18.7835 22.3198C19.5065 22.3159 19.629 22.3159 20.3176 22.3198L20.3482 22.2926C20.352 22.1059 20.3635 21.6898 20.111 21.402C19.9771 21.2504 19.7361 21.1104 19.3841 21.1104C18.8064 21.1104 18.3091 21.4954 18.3091 22.2809C18.3091 23.0159 18.7643 23.4126 19.4874 23.4126C19.8738 23.4126 20.111 23.2959 20.1914 23.2531H20.1952L20.222 23.222C20.2296 23.0587 20.2334 23.0159 20.2564 22.8448L20.222 22.8254V22.8292ZM19.8891 21.997C19.8164 21.997 19.7514 21.997 19.6902 21.997C19.4109 21.997 19.2196 22.0048 18.7797 21.997C18.8217 21.577 19.1163 21.4137 19.3612 21.4137C19.5601 21.4137 19.7552 21.5109 19.8432 21.7442C19.8776 21.8376 19.8815 21.9231 19.8853 21.9815V21.9931L19.8891 21.997Z" fill="black"/>
<path d="M24.4225 23.2492C24.4263 23.1714 24.4301 23.1286 24.4416 23.0198L24.4148 22.9886C23.8448 23.0081 23.7071 23.0081 23.0414 23.0081V22.8292C23.0376 22.557 23.0337 22.4092 23.0414 21.997C23.642 21.997 23.753 21.997 24.2656 22.0086L24.2924 21.9775V21.9425C24.2962 21.8336 24.3001 21.787 24.3154 21.6548L24.2924 21.6275H24.0973H24.082C23.6994 21.6353 23.5081 21.6353 23.0414 21.6314C23.0414 21.2425 23.0414 21.122 23.0567 20.7331H23.2059C23.6573 20.7331 23.8601 20.737 24.3766 20.7525L24.4033 20.7214C24.411 20.6048 24.4148 20.5464 24.4263 20.4686C24.4263 20.4453 24.4301 20.422 24.434 20.3909L24.4072 20.3636C23.7415 20.3714 23.5043 20.3714 22.9687 20.3753H22.5517L22.5249 20.4064C22.5555 20.8925 22.5555 21.297 22.5555 22.0048C22.5555 22.7125 22.544 22.9614 22.5326 23.257V23.3386L22.5517 23.3698C22.7621 23.3698 22.9304 23.3698 23.072 23.3659C23.5043 23.362 23.7415 23.3581 24.388 23.3581L24.4187 23.327C24.4187 23.292 24.4187 23.2648 24.4225 23.2414V23.2492Z" fill="black"/>
<path d="M26.7678 22.8604C26.764 22.907 26.7602 22.942 26.7564 22.9731C26.7487 23.0626 26.741 23.1093 26.7334 23.2376L26.7028 23.2687L26.6875 23.2765C26.5612 23.3348 26.3891 23.4126 26.0945 23.4126C25.4288 23.4126 24.9927 22.9537 24.9927 22.2926C24.9927 21.6315 25.4173 21.1143 26.1021 21.1143C26.3776 21.1143 26.5765 21.1959 26.6951 21.2426H26.7066L26.7219 21.2776C26.7066 21.4293 26.699 21.4837 26.6913 21.612L26.6569 21.6276C26.5115 21.5265 26.3432 21.4643 26.1672 21.4643C25.7999 21.4643 25.4785 21.7365 25.4785 22.277C25.4785 22.8487 25.819 23.0587 26.1634 23.0587C26.4541 23.0587 26.6378 22.9187 26.7257 22.8526L26.7334 22.8448L26.7678 22.8604Z" fill="black"/>
<path fill-rule="evenodd" clip-rule="evenodd" d="M29.132 21.4176C29.3347 21.6431 29.3921 21.9387 29.3998 22.2343C29.3998 22.3781 29.3921 22.5181 29.3615 22.6426C29.3118 22.8487 29.2199 23.0159 29.0746 23.152C28.8795 23.3387 28.6193 23.4087 28.3094 23.4087C27.9115 23.4087 27.659 23.2648 27.5175 23.1248C27.2152 22.8331 27.2114 22.4054 27.2114 22.2654C27.2114 22.1059 27.2191 21.6898 27.5175 21.4098C27.6399 21.2854 27.8962 21.1143 28.34 21.1143C28.6384 21.1143 28.9368 21.2076 29.132 21.4176ZM28.8182 22.8098C28.9215 22.6193 28.9254 22.3354 28.9215 22.2498C28.9215 22.1448 28.9024 21.8609 28.7953 21.6743C28.7111 21.542 28.5696 21.4331 28.3209 21.4331C28.2367 21.4331 27.9881 21.4409 27.835 21.6781C27.7164 21.8493 27.7011 22.0943 27.7011 22.2731C27.7011 22.452 27.7049 22.8681 28.0569 23.0393C28.1373 23.0781 28.2291 23.0937 28.3171 23.0937C28.4816 23.0937 28.6958 23.0431 28.8221 22.8098H28.8182Z" fill="black"/>
<path fill-rule="evenodd" clip-rule="evenodd" d="M32.8889 23.012C33.0534 22.9498 33.149 22.872 33.2064 22.8254L33.2408 22.8448C33.2217 23.012 33.2141 23.0548 33.2064 23.222L33.1796 23.2531C33.1031 23.292 32.8659 23.4126 32.4757 23.4126C31.7488 23.4126 31.2974 23.0159 31.2974 22.2809C31.2974 21.4954 31.7909 21.1104 32.3724 21.1104C32.7205 21.1104 32.9654 21.2504 33.0993 21.402C33.3518 21.6898 33.3441 22.1059 33.3365 22.2926L33.3059 22.3198C32.6172 22.3159 32.4948 22.3159 31.7718 22.3198C31.7756 22.4676 31.7871 22.6737 31.9401 22.8487C32.1199 23.0548 32.3724 23.0781 32.5101 23.0781C32.6364 23.0781 32.7703 23.0548 32.8927 23.0159L32.8889 23.012ZM32.6785 22.0009C32.7397 22.0009 32.8047 22.0009 32.8774 22.0009V21.9931C32.8736 21.9348 32.8659 21.8454 32.8353 21.752C32.7473 21.5187 32.5522 21.4215 32.3533 21.4215C32.1046 21.4215 31.8138 21.5809 31.7718 22.0048C32.2117 22.0048 32.403 22.0048 32.6823 22.0048L32.6785 22.0009Z" fill="black"/>
<path d="M36.6538 21.6742H36.6614C36.9828 21.8142 37.4075 21.9892 37.4075 22.5259C37.4075 23.0003 37.0402 23.4242 36.2712 23.4242C35.8006 23.4242 35.5022 23.2881 35.3951 23.2376L35.376 23.2064C35.3913 23.0937 35.3951 23.0237 35.4028 22.9226C35.4028 22.8914 35.4066 22.8564 35.4104 22.8176L35.4563 22.802L35.4716 22.8098C35.5902 22.8876 35.8389 23.0509 36.2368 23.0509C36.692 23.0509 36.8833 22.8253 36.8833 22.5726C36.8833 22.277 36.627 22.1642 36.3401 22.0592L36.1182 21.9659H36.1105C35.7968 21.822 35.3836 21.6392 35.3836 21.1298C35.3836 20.9742 35.4257 20.8148 35.5214 20.6864C35.7241 20.4064 36.0914 20.3131 36.451 20.3131C36.8106 20.3131 37.0134 20.3753 37.2468 20.4492L37.2697 20.4842C37.2544 20.6126 37.2506 20.6748 37.2429 20.7681L37.2353 20.8537L37.2009 20.8692C37.0096 20.7759 36.803 20.6748 36.4701 20.6748C36.1029 20.6748 35.8733 20.8381 35.8733 21.087C35.8733 21.2776 36.0072 21.3631 36.099 21.4214C36.1564 21.4564 36.1756 21.4642 36.4395 21.5731L36.6614 21.6664L36.6538 21.6742Z" fill="black"/>
<path fill-rule="evenodd" clip-rule="evenodd" d="M38.5397 21.1415L38.5703 21.1648L38.5627 21.3398C38.6507 21.2737 38.8649 21.1143 39.2093 21.1143C39.7716 21.1143 40.1657 21.5537 40.1657 22.1487C40.1657 22.802 39.7104 23.362 38.7769 23.362C38.6928 23.362 38.6392 23.3581 38.578 23.3543C38.578 23.8131 38.5895 23.9454 38.6086 24.2604L38.6163 24.3693L38.5895 24.3926C38.4364 24.3965 38.2796 24.4004 38.1266 24.4043L38.1036 24.377C38.1113 24.1204 38.1189 23.852 38.1189 23.4243C38.1189 23.2998 38.1189 23.1754 38.1189 23.0509C38.1189 22.9265 38.1189 22.802 38.1189 22.6776V22.6154C38.1189 22.0048 38.1151 21.7131 38.0615 21.2465L38.0845 21.2193C38.2528 21.192 38.3178 21.1804 38.4326 21.157C38.4632 21.1493 38.5015 21.1454 38.5436 21.1337L38.5397 21.1415ZM38.5627 22.2965C38.5627 22.5454 38.5665 22.7943 38.5703 23.0393C38.5895 23.0393 38.6048 23.0393 38.6239 23.0431C38.6622 23.0431 38.7043 23.0509 38.7578 23.0509C39.3393 23.0509 39.676 22.697 39.676 22.1759C39.676 21.7365 39.4311 21.4643 39.0792 21.4643C38.842 21.4643 38.6736 21.5731 38.5703 21.6393V21.6548C38.5665 21.8687 38.5627 22.0787 38.5627 22.2887V22.2965Z" fill="black"/>
<path d="M42.3121 20.2314C42.228 20.2353 42.1438 20.2353 42.0596 20.2353C41.9754 20.2353 41.8951 20.2353 41.7995 20.2314L41.7727 20.2548C41.6962 20.4764 41.5967 20.6903 41.5393 20.8226L41.5202 20.8653C41.5202 20.8653 41.5087 20.8887 41.5049 20.9003L41.524 20.9314C41.677 20.9314 41.7268 20.9314 41.8454 20.9353L41.876 20.9198C42.0749 20.6126 42.1132 20.5542 42.3312 20.2703L42.3159 20.2353L42.3121 20.2314Z" fill="black"/>
<path fill-rule="evenodd" clip-rule="evenodd" d="M42.6678 22.8292C42.6104 22.8759 42.5109 22.9537 42.3502 23.0159C42.2278 23.0587 42.0939 23.0781 41.9676 23.0781C41.8299 23.0781 41.5774 23.0548 41.3976 22.8487C41.2446 22.6776 41.2331 22.4676 41.2293 22.3198C41.9562 22.3159 42.0748 22.3159 42.7634 22.3198L42.794 22.2926C42.794 22.0981 42.8055 21.6859 42.553 21.402C42.4229 21.2504 42.1781 21.1104 41.8299 21.1104C41.2522 21.1104 40.7549 21.4954 40.7549 22.2809C40.7549 23.0159 41.2101 23.4126 41.937 23.4126C42.3273 23.4126 42.5645 23.292 42.641 23.2531L42.6678 23.222C42.6754 23.0587 42.6792 23.0159 42.7022 22.8448L42.6678 22.8254V22.8292ZM42.3349 21.997C42.2622 21.997 42.1972 21.997 42.136 21.997C41.8567 21.997 41.6654 22.0048 41.2254 21.997C41.2714 21.577 41.5621 21.4137 41.8108 21.4137C42.0097 21.4137 42.2048 21.5109 42.2928 21.7442C42.3273 21.8337 42.3311 21.9192 42.3349 21.9776V21.9892V21.997Z" fill="black"/>
<path d="M45.1161 22.9576L45.1276 22.8604L45.0932 22.8448L45.0855 22.8526C44.9975 22.9187 44.8139 23.0587 44.5231 23.0587C44.1788 23.0587 43.8383 22.8526 43.8383 22.277C43.8383 21.7365 44.1597 21.4643 44.527 21.4643C44.7029 21.4643 44.8713 21.5265 45.0167 21.6276L45.0511 21.612V21.5848C45.0626 21.4759 45.0626 21.4176 45.0817 21.2776L45.0626 21.2504H45.0511C44.9363 21.1959 44.7374 21.1143 44.4581 21.1143C43.7733 21.1143 43.3486 21.6198 43.3486 22.2926C43.3486 22.9654 43.7809 23.4126 44.4504 23.4126C44.745 23.4126 44.9172 23.3348 45.0434 23.2765L45.0626 23.2687L45.0932 23.2376C45.1047 23.1015 45.1085 23.0587 45.12 22.9576H45.1161Z" fill="black"/>
<path d="M46.1722 23.362H46.1377C45.9388 23.362 45.8967 23.3659 45.6901 23.3776L45.6672 23.3465V23.3076C45.6825 23.0976 45.6939 22.8992 45.6939 22.4598C45.6939 21.6548 45.6825 21.5031 45.6519 21.2542L45.6748 21.2231L45.7513 21.2115C45.8891 21.192 45.9656 21.1804 46.153 21.1376L46.1951 21.1648V21.1803C46.1836 21.3942 46.1683 21.6237 46.1683 22.1565C46.1683 22.8915 46.176 23.0315 46.1913 23.2804V23.3309L46.1722 23.3581V23.362Z" fill="black"/>
<path d="M46.176 20.5542C45.9503 20.562 45.9005 20.5659 45.6863 20.5892L45.6595 20.5659C45.6595 20.5115 45.6595 20.4531 45.6595 20.3948C45.6595 20.3248 45.6595 20.2587 45.6519 20.1809V20.1654L45.6825 20.142C45.8814 20.1265 45.9388 20.1226 46.0918 20.107L46.1722 20.0992L46.1989 20.1226C46.1951 20.2937 46.1951 20.3365 46.1989 20.5231L46.1722 20.5504L46.176 20.5542Z" fill="black"/>
<path fill-rule="evenodd" clip-rule="evenodd" d="M48.6473 21.5498C48.6779 21.6665 48.6779 21.8998 48.6779 22.0787V22.4948C48.6779 23.0082 48.6817 23.0626 48.7047 23.3232V23.3387L48.6856 23.3621C48.5364 23.3621 48.479 23.3659 48.3795 23.3698C48.3412 23.3698 48.2953 23.3737 48.238 23.3776L48.2188 23.3504V23.1987C48.1347 23.2648 47.9357 23.4126 47.6029 23.4126C47.1591 23.4126 46.853 23.1248 46.853 22.7087C46.853 22.1448 47.3466 21.9621 48.1423 21.8726L48.2188 21.8648C48.2188 21.7521 48.2188 21.6704 48.1806 21.6043C48.1385 21.5265 48.0352 21.4487 47.8133 21.4487C47.534 21.4487 47.3389 21.5304 47.1553 21.6043L47.14 21.6121L47.1055 21.5926V21.5187L47.1094 21.4643V21.4021C47.1132 21.3554 47.1132 21.3282 47.117 21.2815L47.1438 21.2582C47.3925 21.1726 47.6488 21.1182 47.9089 21.1182C48.238 21.1182 48.5555 21.2232 48.6473 21.5537V21.5498ZM48.2226 22.8837V22.1798L48.1844 22.1876C47.7368 22.2498 47.3236 22.3121 47.3236 22.6854C47.3236 22.7087 47.3236 23.0704 47.7444 23.0704C48.0084 23.0704 48.1691 22.9343 48.2226 22.8876H48.2265L48.2226 22.8837Z" fill="black"/>
<path d="M49.6613 23.3698H49.5847L49.5082 23.3776L49.4853 23.3465V23.2804C49.4929 22.9887 49.5044 22.6076 49.5044 21.8571C49.5044 21.2737 49.5044 20.6515 49.4585 20.1109L49.4814 20.0876C49.6995 20.0526 49.7416 20.0448 49.9635 19.9982L49.9903 20.0254C49.9597 20.5776 49.9597 21.1337 49.9597 21.6898C49.9597 22.6154 49.9711 22.9343 49.9941 23.3348L49.9673 23.3621C49.8219 23.3621 49.7531 23.3659 49.6574 23.3698H49.6613Z" fill="black"/>
<path d="M51.2491 23.362H51.2835L51.3064 23.3348V23.292C51.2873 23.0353 51.2797 22.9031 51.2797 22.1565C51.2797 21.6315 51.2911 21.402 51.3064 21.1881V21.1648L51.2644 21.1376C51.0769 21.1765 51.0004 21.1881 50.8627 21.2115L50.7861 21.2231L50.7632 21.2542C50.7938 21.5031 50.8091 21.6548 50.8091 22.4598C50.8091 22.9187 50.7976 23.1131 50.7823 23.3309V23.3465L50.8014 23.3776C51.008 23.3659 51.0501 23.3659 51.2491 23.362Z" fill="black"/>
<path d="M50.7972 20.5893C51.0153 20.5659 51.0612 20.5659 51.2869 20.5543L51.3137 20.527C51.3099 20.3404 51.3099 20.2976 51.3137 20.1265L51.2869 20.1031L51.2066 20.1109C51.0535 20.1265 50.9961 20.1304 50.7972 20.1459L50.7666 20.1693V20.2276C50.7704 20.2859 50.7743 20.3404 50.7743 20.3987C50.7743 20.4531 50.7743 20.5115 50.7704 20.5698L50.7972 20.5931V20.5893Z" fill="black"/>
<path d="M53.0318 22.0826C53.2078 22.1371 53.6133 22.2693 53.6133 22.7165C53.6133 22.8876 53.5483 23.0743 53.3647 23.2143C53.1313 23.4048 52.8176 23.4165 52.6569 23.4165C52.4197 23.4165 52.2208 23.3737 52.0524 23.3115C52.041 23.3076 52.0257 23.2998 52.0142 23.2959L51.9874 23.2843L51.9644 23.2454C51.9797 23.1015 51.9797 23.0665 51.9874 22.9498V22.8915L52.0333 22.8798C52.1137 22.9382 52.3049 23.0821 52.6454 23.0821C52.9859 23.0821 53.1236 22.8954 53.1236 22.7671C53.1236 22.5726 52.9362 22.5104 52.6646 22.4248L52.523 22.3782C52.3432 22.3237 51.9453 22.2032 51.9453 21.7676C51.9453 21.3321 52.3432 21.1182 52.8367 21.1182C53.1581 21.1182 53.3876 21.2037 53.4718 21.2348L53.4947 21.2659C53.4909 21.3087 53.4871 21.3437 53.4833 21.3709C53.4756 21.4409 53.468 21.4837 53.4603 21.6004L53.4182 21.6159C53.3073 21.5498 53.1351 21.4487 52.8482 21.4487C52.787 21.4487 52.7258 21.4526 52.6569 21.4721C52.523 21.5071 52.4121 21.5926 52.4121 21.7248C52.4121 21.9076 52.5919 21.9621 52.8673 22.0398L53.0242 22.0865L53.0318 22.0826Z" fill="black"/>
<path d="M55.4268 20.2392C55.511 20.2392 55.5951 20.2392 55.6793 20.2353L55.6984 20.2703C55.4804 20.5542 55.4421 20.6126 55.2432 20.9198L55.2126 20.9353C55.094 20.9314 55.0442 20.9314 54.8912 20.9314L54.8721 20.9003C54.8797 20.8809 54.8912 20.8537 54.9065 20.8226C54.9639 20.6942 55.0634 20.4764 55.1437 20.2548L55.1705 20.2314C55.2661 20.2353 55.3465 20.2353 55.4306 20.2353L55.4268 20.2392Z" fill="black"/>
<path fill-rule="evenodd" clip-rule="evenodd" d="M55.7135 23.012C55.878 22.9498 55.9737 22.872 56.031 22.8254L56.0655 22.8448C56.0425 23.012 56.0387 23.0548 56.031 23.222L56.0043 23.2531H56.0004C55.9201 23.2959 55.6829 23.4126 55.2965 23.4126C54.5734 23.4126 54.1182 23.0159 54.1182 22.2809C54.1182 21.4954 54.6117 21.1104 55.1932 21.1104C55.5413 21.1104 55.7862 21.2504 55.9201 21.402C56.1726 21.6898 56.1611 22.1059 56.1573 22.2926L56.1267 22.3198C55.4381 22.3159 55.3156 22.3159 54.5926 22.3198C54.5926 22.4676 54.6117 22.6737 54.7609 22.8487C54.9445 23.0548 55.1932 23.0781 55.3309 23.0781C55.461 23.0781 55.5911 23.0548 55.7173 23.0159L55.7135 23.012ZM55.5031 22.0009C55.5643 22.0009 55.6293 22.0009 55.6982 22.0009V21.9931C55.6944 21.9348 55.6867 21.8454 55.6523 21.7559C55.5643 21.5226 55.3692 21.4254 55.1702 21.4254C54.9216 21.4254 54.6308 21.5848 54.5887 22.0087C55.0287 22.0087 55.22 22.0087 55.4993 22.0087L55.5031 22.0009Z" fill="black"/>
<path fill-rule="evenodd" clip-rule="evenodd" d="M58.6287 22.8292C58.5713 22.8759 58.4757 22.9537 58.3112 23.0159C58.1887 23.0587 58.0548 23.0781 57.9286 23.0781C57.7909 23.0781 57.5384 23.0548 57.3586 22.8487C57.2093 22.6776 57.194 22.4676 57.1902 22.3198C57.9171 22.3159 58.0357 22.3159 58.7243 22.3198L58.7549 22.2926C58.7549 22.1059 58.7664 21.6898 58.5178 21.402C58.3839 21.2504 58.1428 21.1104 57.7909 21.1104C57.2132 21.1104 56.7158 21.4954 56.7158 22.2809C56.7158 23.0159 57.1711 23.4126 57.898 23.4126C58.2806 23.4126 58.5178 23.2959 58.6019 23.257H58.6057L58.6325 23.2259C58.6402 23.0626 58.6478 23.0198 58.667 22.8487L58.6325 22.8292H58.6287ZM58.0969 22.0009C57.8176 22.0009 57.6263 22.0087 57.1864 22.0009C57.2323 21.5809 57.5231 21.4176 57.7679 21.4176C57.9668 21.4176 58.162 21.5148 58.25 21.7481C58.2806 21.8376 58.2882 21.9231 58.292 21.9815V21.997C58.2193 21.997 58.1581 21.997 58.0969 21.997V22.0009Z" fill="black"/>
<path fill-rule="evenodd" clip-rule="evenodd" d="M14.3339 25.151L14.3531 25.1237C14.5788 25.0849 14.6209 25.0771 14.8236 25.0343L14.8542 25.0615C14.8236 25.6487 14.8198 26.6949 14.8198 27.1149C14.8198 27.7682 14.8389 28.0793 14.8542 28.371L14.8313 28.4021C14.6668 28.4021 14.6017 28.4021 14.4602 28.4099H14.3799L14.3492 28.3865L14.3569 28.231H14.3492C14.2421 28.3126 14.0623 28.441 13.7486 28.441C13.1594 28.441 12.7539 27.9976 12.7539 27.356C12.7539 26.8971 12.9567 26.6054 13.1441 26.4499C13.4655 26.1737 13.8863 26.1582 14.1159 26.1582C14.2077 26.1582 14.2536 26.1582 14.3722 26.166C14.376 25.6487 14.3569 25.396 14.3339 25.151ZM13.8595 28.0715C14.1274 28.0715 14.2919 27.9354 14.3531 27.8849C14.3607 27.3326 14.3607 27.2043 14.3569 26.5121C14.3301 26.5121 14.3072 26.5121 14.2842 26.5082C14.2421 26.5082 14.1962 26.5004 14.135 26.5004C13.9973 26.5004 13.7065 26.5082 13.4923 26.6987C13.3966 26.7882 13.236 26.9865 13.236 27.3599C13.236 27.601 13.3048 27.776 13.4005 27.881C13.4808 27.9704 13.6262 28.0715 13.8557 28.0715H13.8595Z" fill="black"/>
<path fill-rule="evenodd" clip-rule="evenodd" d="M17.4484 27.8693C17.3911 27.9159 17.2954 27.9937 17.1309 28.0559C17.0047 28.0987 16.8746 28.1182 16.7445 28.1182C16.6068 28.1182 16.3543 28.0948 16.1745 27.8887C16.0253 27.7137 16.01 27.5076 16.0061 27.3598C16.733 27.3559 16.8516 27.3559 17.5403 27.3598L17.5709 27.3326C17.5747 27.1459 17.5823 26.7298 17.3298 26.4421C17.1998 26.2904 16.9549 26.1504 16.6068 26.1504C16.0291 26.1504 15.5317 26.5354 15.5317 27.3171C15.5317 28.0521 15.987 28.4487 16.7139 28.4487C17.1041 28.4487 17.3413 28.3282 17.4178 28.2893L17.4446 28.2582C17.4523 28.0948 17.4561 28.0521 17.479 27.8809L17.4446 27.8576L17.4484 27.8693ZM17.1194 27.0371H16.9434C16.6527 27.0409 16.4614 27.0448 16.01 27.0409C16.0559 26.6209 16.3466 26.4576 16.5953 26.4576C16.7942 26.4576 16.9894 26.5548 17.0773 26.7843C17.1118 26.8737 17.1156 26.9593 17.1194 27.0215V27.0332V27.0371Z" fill="black"/>
<path d="M20.8955 26.7182L20.6736 26.6249C20.4096 26.516 20.3905 26.5082 20.3331 26.4732C20.2413 26.4187 20.1074 26.3293 20.1074 26.1387C20.1074 25.8899 20.3369 25.7265 20.7042 25.7265C21.037 25.7265 21.2436 25.8276 21.4349 25.921L21.4693 25.9054L21.477 25.8354C21.4846 25.7304 21.4923 25.6682 21.5076 25.5321L21.4846 25.4971C21.2513 25.4271 21.037 25.361 20.6889 25.361C20.3407 25.361 19.962 25.4543 19.7592 25.7304C19.6674 25.8587 19.6215 26.0182 19.6215 26.1737C19.6215 26.6832 20.0347 26.866 20.3446 27.006H20.356L20.5779 27.1032C20.8649 27.2082 21.1212 27.3248 21.1212 27.6165C21.1212 27.8693 20.9299 28.0949 20.4746 28.0949C20.0768 28.0949 19.8243 27.9315 19.7095 27.8537L19.698 27.846L19.6521 27.8615C19.6521 27.9043 19.6445 27.9393 19.6445 27.9704C19.6368 28.0676 19.633 28.1376 19.6177 28.2465L19.633 28.2776C19.7401 28.3282 20.0385 28.4643 20.5091 28.4643C21.2781 28.4643 21.6453 28.0365 21.6453 27.566C21.6453 27.0293 21.2207 26.8504 20.8955 26.7143V26.7182Z" fill="black"/>
<path d="M24.2849 26.2243C24.2772 26.5432 24.2696 26.8426 24.2696 27.1848C24.2696 27.702 24.2849 28.017 24.2925 28.1959C24.2925 28.2543 24.2964 28.3165 24.3002 28.3748L24.2811 28.402C24.128 28.402 24.0668 28.4059 23.9712 28.4137C23.9329 28.4137 23.887 28.4176 23.8296 28.4215L23.8028 28.3943V28.2193L23.7952 28.227C23.6919 28.3009 23.4623 28.4604 23.1142 28.4604C22.942 28.4604 22.7508 28.4215 22.6092 28.3165C22.3299 28.0987 22.3261 27.7487 22.3223 27.4259V27.4104V27.1498V27.0176C22.3146 26.5354 22.3146 26.4615 22.2993 26.2515L22.3223 26.2204H22.3644C22.5365 26.2165 22.5862 26.2165 22.7775 26.2009L22.8043 26.232L22.7852 27.1537V27.177V27.212V27.2587C22.7852 27.3326 22.7852 27.4182 22.7852 27.5543C22.7852 27.7332 22.7967 28.1104 23.2443 28.1104C23.5044 28.1104 23.6919 27.9704 23.7952 27.8926C23.799 27.6631 23.799 27.4726 23.799 27.2276C23.799 26.6404 23.7952 26.5237 23.7684 26.2476L23.7952 26.2165H23.8411C24.0056 26.2165 24.063 26.2126 24.2505 26.2009L24.2772 26.232L24.2849 26.2243Z" fill="black"/>
<path d="M25.5396 28.4021H25.5931L25.6161 28.3748V28.3321C25.597 28.0754 25.5893 27.9432 25.5893 27.1965C25.5893 26.6521 25.6008 26.4265 25.6161 26.2048L25.574 26.1776C25.3674 26.2204 25.2986 26.2321 25.1379 26.2554L25.0996 26.2632L25.0767 26.2943C25.1073 26.5432 25.1226 26.6948 25.1226 27.4998C25.1226 27.9509 25.1111 28.1493 25.0996 28.3632V28.3865L25.1187 28.4176C25.3177 28.4059 25.3636 28.4059 25.5472 28.4021H25.5396Z" fill="black"/>
<path d="M25.1073 25.6293C25.3253 25.6059 25.3712 25.6021 25.6008 25.5943L25.6276 25.5671C25.6237 25.3804 25.6237 25.3376 25.6276 25.1665L25.6008 25.1393H25.5817C25.3789 25.1626 25.333 25.1665 25.1073 25.1821L25.0767 25.2093C25.0767 25.2326 25.0767 25.2559 25.0767 25.2754C25.0767 25.3298 25.0805 25.3804 25.0805 25.4348C25.0805 25.4893 25.0805 25.5476 25.0767 25.6021L25.1034 25.6293H25.1073Z" fill="black"/>
<path d="M27.3454 27.1225C27.5214 27.177 27.9231 27.3092 27.9231 27.7564C27.9231 27.9275 27.858 28.1142 27.6744 28.2542C27.441 28.4448 27.1273 28.4564 26.9666 28.4564C26.7294 28.4564 26.5305 28.4137 26.3622 28.3514L26.2971 28.3281L26.2742 28.2892C26.2895 28.1414 26.2933 28.1103 26.301 27.982V27.9353L26.3469 27.9237C26.4272 27.982 26.6223 28.1259 26.9628 28.1259C27.3033 28.1259 27.441 27.9392 27.441 27.8109C27.441 27.6164 27.2497 27.5542 26.9819 27.4687L26.8404 27.422C26.6606 27.3675 26.2627 27.2431 26.2627 26.8114C26.2627 26.3798 26.6606 26.162 27.1541 26.162C27.4716 26.162 27.6974 26.2475 27.7853 26.2787H27.793L27.816 26.3098V26.3603L27.8045 26.4031C27.7968 26.4809 27.7892 26.5198 27.7815 26.6403L27.7433 26.6559C27.6323 26.5898 27.4602 26.4887 27.1732 26.4887C27.112 26.4887 27.0508 26.4925 26.9819 26.5081C26.848 26.5431 26.7371 26.6325 26.7371 26.7609C26.7371 26.9437 26.9169 26.9981 27.1924 27.0759L27.353 27.1225H27.3454Z" fill="black"/>
<path d="M30.0543 27.7525C30.0543 27.3053 29.6526 27.1731 29.4766 27.1186L29.3159 27.072C29.0443 26.9903 28.8606 26.9359 28.8606 26.757C28.8606 26.6247 28.9716 26.5392 29.1055 26.5042C29.1705 26.4886 29.2317 26.4847 29.2968 26.4847C29.5837 26.4847 29.7558 26.5859 29.8668 26.652L29.9051 26.6364C29.9165 26.5159 29.9204 26.477 29.928 26.3992C29.928 26.372 29.9357 26.3447 29.9395 26.3059L29.9165 26.2747H29.9089C29.8247 26.2397 29.599 26.1581 29.2776 26.1581C28.7841 26.1581 28.3862 26.372 28.3862 26.8075C28.3862 27.2431 28.7841 27.3636 28.9677 27.4181L29.1093 27.4647C29.3771 27.5503 29.5684 27.6125 29.5684 27.807C29.5684 27.9392 29.4383 28.122 29.0902 28.122C28.742 28.122 28.5546 27.9781 28.4742 27.9197L28.4283 27.9314V27.9781C28.4207 28.1025 28.4168 28.1375 28.4015 28.2853L28.4245 28.3242L28.4627 28.3397L28.4895 28.3514C28.6579 28.4136 28.8568 28.4564 29.094 28.4564C29.2509 28.4564 29.5684 28.4447 29.8018 28.2542C29.9854 28.1142 30.0504 27.9236 30.0504 27.7564L30.0543 27.7525Z" fill="black"/>
<path fill-rule="evenodd" clip-rule="evenodd" d="M32.4759 27.8693C32.4185 27.9159 32.3228 27.9937 32.1583 28.0559C32.0359 28.0987 31.902 28.1182 31.7758 28.1182C31.638 28.1182 31.3855 28.0948 31.2057 27.8887C31.0565 27.7137 31.0412 27.5076 31.0374 27.3598C31.7605 27.3559 31.8829 27.3559 32.5715 27.3598L32.6021 27.3326C32.6059 27.1459 32.6174 26.7298 32.3649 26.4421C32.231 26.2904 31.99 26.1504 31.638 26.1504C31.0603 26.1504 30.563 26.5354 30.563 27.3171C30.563 28.0521 31.0183 28.4487 31.7413 28.4487C32.1315 28.4487 32.3687 28.3282 32.4453 28.2893L32.472 28.2582C32.4797 28.0948 32.4835 28.0521 32.5065 27.8809L32.472 27.8576L32.4759 27.8693ZM32.143 27.0371H31.967C31.6763 27.0409 31.485 27.0448 31.0336 27.0409C31.0795 26.6209 31.3702 26.4576 31.6189 26.4576C31.8178 26.4576 32.013 26.5548 32.1009 26.7843C32.1354 26.8737 32.1392 26.9593 32.143 27.0215V27.0332V27.0371Z" fill="black"/>
<path fill-rule="evenodd" clip-rule="evenodd" d="M36.5655 26.4615C36.7683 26.6871 36.8257 26.9787 36.8334 27.2743C36.8334 27.4182 36.8257 27.5582 36.7951 27.6826C36.7454 27.8887 36.6535 28.0521 36.5082 28.1921C36.313 28.3787 36.0529 28.4487 35.743 28.4487C35.3451 28.4487 35.0926 28.3049 34.9511 28.1649C34.6527 27.8732 34.645 27.4415 34.645 27.3054C34.645 27.146 34.6527 26.7337 34.9511 26.4499C35.0735 26.3254 35.3298 26.1543 35.7736 26.1543C36.0759 26.1543 36.3704 26.2476 36.5655 26.4576V26.4615ZM36.2518 27.8499C36.3551 27.6593 36.359 27.3793 36.3551 27.2899C36.3551 27.1849 36.336 26.901 36.2289 26.7143C36.1447 26.5821 36.0032 26.4732 35.7545 26.4732C35.6703 26.4732 35.4216 26.481 35.2686 26.7182C35.15 26.8893 35.1347 27.1343 35.1347 27.3132C35.1347 27.4921 35.1385 27.9082 35.4905 28.0754C35.5709 28.1143 35.6627 28.1299 35.7507 28.1299C35.9152 28.1299 36.1256 28.0793 36.2557 27.846L36.2518 27.8499Z" fill="black"/>
<path d="M39.1979 27.9004C39.1903 27.9665 39.1864 28.0093 39.1826 28.0482C39.175 28.1182 39.1711 28.1648 39.1635 28.2776L39.1329 28.3048L39.1176 28.3126C38.9913 28.3709 38.8192 28.4487 38.5208 28.4487C37.8551 28.4487 37.4189 27.9898 37.4189 27.3287C37.4189 26.6676 37.8436 26.1504 38.5284 26.1504C38.8039 26.1504 38.999 26.2321 39.1176 26.2787L39.1367 26.2865L39.152 26.3176C39.1367 26.4693 39.1291 26.5237 39.1214 26.6521L39.087 26.6676C38.9416 26.5665 38.7733 26.5043 38.5973 26.5043C38.23 26.5043 37.9086 26.7726 37.9086 27.3132C37.9086 27.8887 38.2491 28.0948 38.5935 28.0948C38.8842 28.0948 39.0678 27.9548 39.1558 27.8887L39.1635 27.8809L39.1979 27.8965V27.9004Z" fill="black"/>
<path d="M41.4168 27.9821L41.4245 27.9004L41.3901 27.8848H41.3824C41.2944 27.9548 41.1108 28.0948 40.82 28.0948C40.4757 28.0948 40.1352 27.8887 40.1352 27.3132C40.1352 26.7726 40.4566 26.5043 40.8238 26.5043C40.9998 26.5043 41.1682 26.5665 41.3135 26.6676L41.348 26.6521V26.6326C41.3594 26.5198 41.3633 26.4615 41.3786 26.3176L41.3594 26.2865L41.3403 26.2787C41.2217 26.2321 41.0266 26.1504 40.755 26.1504C40.0702 26.1504 39.6455 26.6559 39.6455 27.3287C39.6455 28.0015 40.0778 28.4487 40.7473 28.4487C41.0457 28.4487 41.2179 28.3709 41.3441 28.3126H41.3556L41.3862 28.2776C41.3977 28.1337 41.4015 28.0948 41.413 27.9821H41.4168Z" fill="black"/>
<path d="M42.4725 28.4021H42.4189C42.2353 28.4059 42.1893 28.4059 41.9904 28.4176L41.9675 28.3865V28.3748C41.9828 28.1571 41.9942 27.9626 41.9942 27.4998C41.9942 26.6948 41.9828 26.5432 41.9521 26.2943L41.9751 26.2632L42.0172 26.2554C42.1779 26.2321 42.2506 26.2204 42.4533 26.1776L42.4992 26.2048V26.2204C42.4839 26.4343 42.4725 26.6637 42.4725 27.1965C42.4725 27.9354 42.4801 28.0715 42.4954 28.3243V28.3748L42.4763 28.4021H42.4725Z" fill="black"/>
<path d="M42.4764 25.5943C42.2507 25.6021 42.201 25.6059 41.9867 25.6293L41.96 25.6021C41.9638 25.5476 41.9638 25.4893 41.9638 25.4348C41.9638 25.3765 41.9638 25.3221 41.96 25.2637V25.2093L41.9867 25.1821C42.2125 25.1665 42.2545 25.1626 42.465 25.1393H42.4764L42.5032 25.1665C42.4994 25.3376 42.4994 25.3804 42.5032 25.5671L42.4764 25.5943Z" fill="black"/>
<path fill-rule="evenodd" clip-rule="evenodd" d="M44.7873 26.1737C44.7911 25.6487 44.7682 25.396 44.7491 25.151L44.772 25.1237C44.9977 25.0849 45.0436 25.0771 45.2388 25.0343L45.2694 25.0615C45.2388 25.6487 45.2349 26.6949 45.2349 27.1149C45.2349 27.7682 45.2502 28.0793 45.2694 28.371L45.2464 28.4021C45.0819 28.4021 45.0169 28.4021 44.8791 28.4099H44.795L44.7644 28.3865L44.7758 28.231L44.7682 28.2387C44.6611 28.3165 44.4813 28.4449 44.1675 28.4449C43.5784 28.4449 43.1729 28.0015 43.1729 27.3599C43.1729 26.901 43.3756 26.6093 43.5631 26.4537C43.8844 26.1776 44.3053 26.1621 44.5348 26.1621C44.6266 26.1621 44.6725 26.1621 44.7911 26.1699L44.7873 26.1737ZM44.7682 27.8887C44.7758 27.3326 44.7758 27.2082 44.772 26.516C44.7452 26.516 44.7223 26.516 44.6993 26.5121C44.6572 26.5121 44.6113 26.5043 44.5501 26.5043C44.4124 26.5043 44.1216 26.5121 43.9112 26.7026C43.8156 26.7921 43.6549 26.9904 43.6549 27.3637C43.6549 27.6049 43.7276 27.7799 43.8194 27.8849C43.8997 27.9743 44.0451 28.0754 44.2747 28.0754C44.5386 28.0754 44.7032 27.9432 44.7682 27.8926V27.8887Z" fill="black"/>
<path fill-rule="evenodd" clip-rule="evenodd" d="M47.8671 27.8693C47.8097 27.9159 47.714 27.9937 47.5495 28.0559C47.4271 28.0987 47.2932 28.1182 47.1669 28.1182C47.0292 28.1182 46.7767 28.0948 46.5969 27.8887C46.4477 27.7137 46.4324 27.5076 46.4286 27.3598C47.1555 27.3559 47.2741 27.3559 47.9627 27.3598L47.9933 27.3326C47.9971 27.1459 48.0086 26.7298 47.7561 26.4421C47.6222 26.2904 47.3812 26.1504 47.033 26.1504C46.4554 26.1504 45.958 26.5354 45.958 27.3171C45.958 28.0521 46.4133 28.4487 47.1402 28.4487C47.5266 28.4487 47.7676 28.3282 47.8441 28.2893L47.8709 28.2582C47.8785 28.0948 47.8824 28.0521 47.9053 27.8809L47.8709 27.8576L47.8671 27.8693ZM47.5342 27.0371H47.3582C47.0675 27.0409 46.8762 27.0448 46.4248 27.0409C46.4707 26.6209 46.7614 26.4576 47.0101 26.4576C47.209 26.4576 47.4041 26.5548 47.4921 26.7843C47.5227 26.8776 47.5304 26.9632 47.5342 27.0215V27.0332V27.0371Z" fill="black"/>
<path d="M50.5796 28.402H50.6216L50.6484 28.3748C50.6331 28.2192 50.6293 28.0326 50.6178 27.5659V27.5309V27.037C50.614 26.7764 50.6102 26.6481 50.5528 26.5237C50.5069 26.4109 50.4112 26.3137 50.2964 26.2476C50.1779 26.1853 50.0401 26.1659 49.9292 26.1659C49.5466 26.1659 49.275 26.3448 49.1564 26.4226H49.1525L49.1564 26.2087L49.1258 26.1776L48.9842 26.2048C48.8809 26.2242 48.8159 26.2359 48.6552 26.2631L48.6284 26.2942V26.337C48.6552 26.6131 48.682 26.9709 48.682 27.6126C48.682 27.8303 48.6782 28.0092 48.6743 28.1764C48.6743 28.2464 48.6743 28.3164 48.6705 28.3864L48.6935 28.4176C48.8886 28.4059 48.9345 28.4059 49.1066 28.402H49.1602L49.187 28.3748C49.1564 27.8809 49.1487 27.4959 49.1525 26.7648C49.2711 26.6753 49.4739 26.5276 49.7417 26.5276C49.8029 26.5276 50.0554 26.5276 50.1396 26.8464C50.1625 26.9359 50.1664 26.9787 50.1664 27.6281C50.1664 27.8342 50.1664 28.0403 50.1626 28.2464C50.1626 28.2698 50.1626 28.2931 50.1626 28.3164C50.1626 28.3398 50.1626 28.3631 50.1626 28.3864L50.1932 28.4176C50.3844 28.4059 50.4189 28.4059 50.5949 28.402H50.5796Z" fill="black"/>
<path d="M52.4349 28.336V28.3632L52.412 28.3904C52.3202 28.4098 52.2475 28.4293 52.083 28.4293C51.9759 28.4293 51.6966 28.4293 51.5627 28.2115C51.4823 28.091 51.4823 27.986 51.4823 27.4882L51.49 26.5587C51.3905 26.5587 51.3523 26.5587 51.2949 26.5587C51.2643 26.5587 51.226 26.5587 51.1725 26.5626L51.1533 26.5393C51.161 26.4032 51.161 26.3682 51.161 26.236L51.1878 26.2087C51.2184 26.2087 51.249 26.2087 51.2757 26.2087C51.3331 26.2087 51.3905 26.2087 51.49 26.2087C51.4862 26.1193 51.4862 26.026 51.4862 25.9404C51.4823 25.8587 51.4785 25.781 51.4709 25.6993L51.4938 25.6682C51.6928 25.6215 51.7425 25.6098 51.9452 25.5515L51.9759 25.5748V25.6682C51.9606 25.8704 51.9606 25.9443 51.9606 26.2165C52.0179 26.2165 52.0638 26.2165 52.1059 26.2165C52.1977 26.2165 52.2781 26.2165 52.4503 26.2087L52.4732 26.2321V26.2671C52.4617 26.3526 52.4579 26.4071 52.4579 26.5315L52.4349 26.5587C52.3929 26.5587 52.3584 26.5587 52.3278 26.5587H52.2628C52.171 26.5548 52.1098 26.551 51.9529 26.551L51.9414 27.3365C51.9453 27.3871 51.9452 27.6282 51.9452 27.6865C51.9452 27.9937 51.9835 28.091 52.2054 28.091C52.301 28.091 52.3699 28.0676 52.4196 28.0521L52.4503 28.0793C52.4388 28.2076 52.4349 28.2426 52.4349 28.3437V28.336Z" fill="black"/>
<path fill-rule="evenodd" clip-rule="evenodd" d="M54.6804 26.5897C54.711 26.7064 54.711 26.9397 54.711 27.1186V27.5347C54.711 28.0559 54.7149 28.1025 54.7378 28.3747L54.7149 28.402C54.5695 28.402 54.5083 28.4059 54.4126 28.4136H54.3514L54.2673 28.4214L54.2519 28.3942V28.2425C54.164 28.3086 53.9688 28.4564 53.636 28.4564C53.1922 28.4564 52.8823 28.1686 52.8823 27.7525C52.8823 27.1847 53.3797 27.0059 54.1754 26.9164L54.2519 26.9086C54.2519 26.7959 54.2519 26.7142 54.2099 26.6481C54.164 26.5703 54.0645 26.4925 53.8426 26.4925C53.5633 26.4925 53.3682 26.5703 53.1884 26.6442L53.1731 26.652L53.1387 26.6325C53.1387 26.547 53.1425 26.4964 53.1463 26.4575C53.1463 26.407 53.1463 26.3759 53.154 26.3253L53.1807 26.2981C53.4294 26.2125 53.6857 26.1581 53.9459 26.1581C54.2711 26.1581 54.5924 26.2631 54.6843 26.5936L54.6804 26.5897ZM54.2558 27.9236V27.2197L54.2175 27.2275C53.7699 27.2897 53.3529 27.352 53.3529 27.7253C53.3529 27.7447 53.3529 28.1103 53.7737 28.1103C54.0415 28.1103 54.1984 27.9742 54.2519 27.9275H54.2558V27.9236Z" fill="black"/>
<path d="M56.0005 28.4021C55.8551 28.4021 55.7863 28.4099 55.6945 28.4137C55.6715 28.4137 55.6486 28.4137 55.6179 28.4137C55.5912 28.4137 55.5682 28.4137 55.5376 28.4137L55.5147 28.3826V28.3515C55.5261 28.056 55.5376 27.6749 55.5376 26.8932C55.5376 26.3099 55.5376 25.6876 55.4917 25.1471L55.5147 25.1237C55.7327 25.0887 55.7748 25.081 55.9967 25.0343L56.0235 25.0654C55.9929 25.6176 55.9929 26.1737 55.9929 26.7299C55.9929 27.6554 56.0043 27.9743 56.0273 28.3749L56.0005 28.4021Z" fill="black"/>
<path fill-rule="evenodd" clip-rule="evenodd" d="M58.3072 28.0559C58.4717 27.9937 58.5673 27.9159 58.6247 27.8692L58.6591 27.8925C58.6362 28.0598 58.6324 28.1025 58.6247 28.2698L58.5979 28.3009H58.5941C58.5099 28.3437 58.2766 28.4603 57.8902 28.4603C57.1633 28.4603 56.708 28.0637 56.708 27.3287C56.708 26.5431 57.2015 26.162 57.7831 26.162C58.1312 26.162 58.376 26.302 58.5099 26.4537C58.7624 26.7414 58.751 27.1575 58.7471 27.3442L58.7165 27.3714C58.0279 27.3675 57.9093 27.3675 57.1824 27.3714C57.1862 27.5192 57.2015 27.7253 57.3507 27.9003C57.5305 28.1064 57.7831 28.1298 57.9208 28.1298C58.047 28.1298 58.1809 28.1064 58.3034 28.0675L58.3072 28.0559ZM58.1197 27.0409C58.1733 27.0409 58.2307 27.0409 58.2957 27.0409C58.2957 27.037 58.2957 27.0331 58.2957 27.0253C58.2919 26.967 58.2842 26.8814 58.2536 26.792C58.1656 26.5625 57.9705 26.4653 57.7716 26.4653C57.5229 26.4653 57.2321 26.6248 57.1901 27.0487C57.6415 27.0487 57.8328 27.0487 58.1235 27.0487L58.1197 27.0409Z" fill="black"/>
<path d="M12.6049 3.01538C12.6011 3.37705 12.5934 3.69983 12.5896 4.00705C12.5781 4.89372 12.5667 5.61705 12.5667 6.56983C12.5667 9.64594 12.624 12.7065 12.7771 15.7826L12.6814 15.8915C11.1129 15.8759 10.6997 15.8915 9.38745 15.942L9.22677 15.9498L9.13112 15.8409C9.22677 13.2587 9.22677 12.6559 9.18851 10.1826C8.41953 10.1632 7.65438 10.1476 6.8854 10.1476C6.11643 10.1476 5.42779 10.167 4.5823 10.202C4.60143 12.8582 4.62056 13.5193 4.73533 15.7904L4.63968 15.8993C3.03287 15.8837 2.64264 15.8993 1.39927 15.9459L1.20415 15.9537L1.10851 15.8448C1.11616 15.4832 1.12764 15.1565 1.13529 14.8454C1.16207 13.8421 1.18503 13.0176 1.18503 11.7576C1.18503 7.23094 1.07025 4.97927 0.974609 3.09705V3.06983L1.08938 2.96094C2.75741 2.96094 3.04817 2.96094 4.52491 2.90649L4.62056 3.01538L4.5823 7.85316C4.91897 7.85316 5.25946 7.85705 5.59995 7.86094C5.94044 7.86483 6.28093 7.86872 6.6176 7.86872C7.48222 7.86872 8.32772 7.84927 9.16938 7.83372V7.59261C9.15025 5.62872 9.14643 5.06094 9.01635 3.06983L9.112 2.96094C10.7226 2.96094 10.9751 2.96094 12.5093 2.90649L12.6049 3.01538Z" fill="black"/>
<path fill-rule="evenodd" clip-rule="evenodd" d="M23.7343 13.1809C23.0035 13.5465 22.1389 13.9665 20.7387 13.9665C19.5871 13.9665 18.799 13.6204 18.3399 12.9592C18.076 12.6054 18.0071 12.267 17.9344 11.9287C17.9268 11.9015 17.9229 11.8704 17.9153 11.8431L24.1168 11.7342L24.2316 11.6059C24.2125 10.7076 24.1934 9.7898 23.9256 8.87591C23.2522 6.71369 21.7755 6.27425 21.1213 6.12647C20.6392 5.99813 20.1993 5.96313 19.7593 5.96313C16.7446 5.96313 14.7476 7.84925 14.7476 11.0187C14.7476 11.8781 14.9006 12.7765 15.2066 13.4181C16.3199 15.8915 18.9329 16.1092 20.314 16.1092C21.8749 16.1092 22.5712 15.8448 23.5545 15.4715L23.6157 15.4481L23.7304 15.3004L23.8643 13.2315L23.7304 13.177L23.7343 13.1809ZM17.9191 9.90258C17.9765 9.3348 18.1104 8.5648 18.8411 8.12536C19.0707 7.97758 19.3423 7.92313 19.6101 7.92313C20.2452 7.92313 20.6277 8.23425 20.8382 8.5648C21.106 8.96925 21.1251 9.40869 21.1251 9.82869L17.9191 9.90258Z" fill="black"/>
<path d="M31.8444 9.90645H31.833L30.8918 9.57201C30.2376 9.35034 29.7211 9.15201 29.7211 8.63867C29.7211 8.4209 29.8742 7.81423 31.064 7.81423C32.2538 7.81423 32.9463 8.26923 33.4283 8.5609C33.4398 8.56867 33.4513 8.57645 33.4627 8.58034L33.6349 8.5259L33.8262 6.52701L33.7305 6.41812C33.7038 6.41034 33.6732 6.40256 33.6464 6.39478C32.7818 6.16534 32.0051 5.95923 30.7962 5.95923C29.855 5.95923 27.9766 6.03312 26.9781 7.4059C26.7294 7.73645 26.4616 8.28478 26.4616 9.01978C26.4616 10.9798 28.0531 11.567 28.956 11.8937L29.6867 12.1503C30.2032 12.3137 31.0487 12.5898 31.0487 13.2509C31.0487 13.7098 30.6087 14.2037 29.5337 14.2037C28.9981 14.2037 28.21 14.0403 27.4984 13.6903C27.2038 13.5426 27.0469 13.422 26.8097 13.2392C26.783 13.2198 26.76 13.2003 26.7294 13.177L26.5572 13.2509C26.519 14.1687 26.4999 14.3903 26.431 15.2226L26.4233 15.3198L26.519 15.4831L26.5687 15.5026C27.4869 15.8253 28.2903 16.1092 29.6676 16.1092C31.1252 16.1092 34.006 15.8526 34.3503 13.2353C34.3694 13.0876 34.3694 12.9592 34.3694 12.8309C34.3694 10.8242 32.9042 10.2876 31.8483 9.90256L31.8444 9.90645Z" fill="black"/>
<path fill-rule="evenodd" clip-rule="evenodd" d="M65.9744 1.82534L59.7078 14.6353C59.2181 15.6503 59.5127 17.2059 60.6413 17.762C61.1157 17.9953 61.6819 18.0187 62.2405 17.8242C62.8679 17.6064 63.4035 17.1476 63.6675 16.5992L69.9341 3.78922C70.4238 2.77422 70.1292 1.21867 69.0044 0.658669C67.8835 0.102557 66.4564 0.82978 65.9744 1.82145V1.82534ZM61.0162 16.992C60.3658 16.6692 60.1707 15.6348 60.473 15.0126L66.7395 2.20256C67.0418 1.58034 67.9714 1.102 68.6371 1.43256C69.0886 1.65811 69.3181 2.222 69.3181 2.75478C69.3181 2.992 69.2722 3.22145 69.1804 3.412L62.9138 16.222C62.7455 16.5681 62.3858 16.8714 61.9727 17.0153C61.6283 17.1359 61.2878 17.1281 61.02 16.9959L61.0162 16.992Z" fill="black"/>
<path d="M48.3258 13.0021C48.3258 11.0615 46.5774 10.4937 45.8123 10.2526L45.1237 10.0504C43.9338 9.7043 43.1457 9.46319 43.1457 8.67763C43.1457 8.10985 43.624 7.72485 44.2016 7.58096C44.4886 7.50707 44.7602 7.48763 45.028 7.48763C46.2752 7.48763 47.0251 7.92707 47.5033 8.21874L47.6754 8.14485C47.7175 7.65874 47.7366 7.47596 47.7749 7.18041C47.7902 7.05207 47.8093 6.9043 47.8323 6.69819L47.7367 6.56985L47.706 6.55819C47.3349 6.42207 46.3556 6.05652 44.9706 6.05652C42.8206 6.05652 41.0913 6.98985 41.0913 8.87985C41.0913 10.7699 42.8167 11.2987 43.6048 11.536L44.2208 11.7382C45.3915 12.1037 46.2178 12.3799 46.2178 13.2237C46.2178 13.7915 45.6593 14.5965 44.1443 14.5965C42.6293 14.5965 41.822 13.9743 41.4777 13.7176L41.2864 13.7721L41.2749 13.9899C41.2482 14.5304 41.2405 14.6743 41.1716 15.3121L41.2673 15.4754C41.3438 15.5026 41.4203 15.5337 41.493 15.561L41.5542 15.5843C42.2849 15.8604 43.1457 16.0432 44.1825 16.0432C44.875 16.0432 46.237 15.9887 47.2546 15.1643C48.0427 14.5576 48.3296 13.7371 48.3296 13.0021H48.3258Z" fill="black"/>
<path d="M38.903 11.0654C38.903 11.7032 38.3904 12.2243 37.7591 12.2243C37.1279 12.2243 36.6152 11.707 36.6152 11.0654C36.6152 10.4237 37.1279 9.90649 37.7591 9.90649C38.3904 9.90649 38.903 10.4237 38.903 11.0654Z" fill="black"/>
<path fill-rule="evenodd" clip-rule="evenodd" d="M65.2127 14.6354L71.4793 1.82537C71.9575 0.829818 73.3883 0.106485 74.5055 0.662596C75.6341 1.2226 75.9286 2.77426 75.4389 3.79315L69.1723 16.6032C68.9045 17.1515 68.3728 17.6143 67.7453 17.8282C67.1868 18.0226 66.6206 17.9993 66.1462 17.7659C65.0176 17.2098 64.723 15.6543 65.2127 14.6393V14.6354ZM65.974 15.0126C65.6756 15.6348 65.8669 16.6693 66.5211 16.992C66.7889 17.1243 67.1294 17.132 67.4737 17.0115C67.8869 16.8676 68.2503 16.5643 68.4149 16.2182L74.6814 3.40815C74.7733 3.2176 74.8192 2.98815 74.8192 2.75093C74.8192 2.21815 74.5896 1.65426 74.1382 1.42871C73.4763 1.10204 72.5428 1.58037 72.2444 2.19871L65.9778 15.0087L65.974 15.0126Z" fill="black"/>
<path d="M79.3913 13.2393C79.3913 12.7104 79.1886 12.4459 78.6721 12.4459H77.2872C76.9773 12.4459 76.7171 12.6598 76.7171 13.0059C76.7171 13.352 76.9543 13.5854 77.2872 13.5854H78.1173C78.1173 14.5265 77.3752 14.892 76.7324 14.892C75.6956 14.892 75.1983 14.0015 75.1983 12.9943C75.1983 11.987 75.7148 11.0965 76.7324 11.0965C77.3522 11.0965 77.6506 11.2987 77.8993 11.4698C78.0791 11.5943 78.2359 11.6993 78.4655 11.6993C78.7524 11.6993 78.9705 11.4776 78.9705 11.1198C78.9705 10.5404 77.9605 9.95703 76.7286 9.95703C75.0644 9.95703 73.9243 11.2793 73.9243 12.9943C73.9243 14.7093 75.072 16.0315 76.7286 16.0315C78.3852 16.0315 79.3837 14.8337 79.3837 13.2393H79.3913Z" fill="black"/>
<path d="M80.6956 10.0542C80.2633 10.0542 80.0605 10.3614 80.0605 10.7736V15.3159C80.0605 15.6892 80.3283 15.9342 80.688 15.9342H82.7921C83.1747 15.9342 83.3698 15.6464 83.3698 15.3625C83.3698 15.0786 83.1824 14.7948 82.7921 14.7948H81.2848V13.5386H82.62C83.0102 13.5386 83.213 13.2509 83.213 12.967C83.213 12.6831 83.0179 12.3992 82.62 12.3992H81.2848V11.1936H82.7194C83.102 11.1936 83.2971 10.9059 83.2971 10.6259C83.2971 10.3459 83.1097 10.0542 82.7194 10.0542H80.6994H80.6956Z" fill="black"/>
<path d="M84.5599 10.0037C84.2079 10.0037 83.9478 10.2331 83.9478 10.6492V15.3392C83.9478 15.7514 84.2079 15.9848 84.5599 15.9848C84.9118 15.9848 85.172 15.7553 85.172 15.3392V12.2592H85.1873L87.7697 15.7126C87.8845 15.8603 88.1293 15.9848 88.2823 15.9848C88.6343 15.9848 88.8945 15.7553 88.8945 15.3392V10.6492C88.8945 10.237 88.6343 10.0037 88.2823 10.0037C87.9304 10.0037 87.6702 10.2331 87.6702 10.6492V13.772H87.6549L85.0725 10.2798C84.9692 10.132 84.7129 10.0076 84.5599 10.0076V10.0037Z" fill="black"/>
<path d="M90.3748 10.0542C89.9425 10.0542 89.7397 10.3614 89.7397 10.7736V15.3159C89.7397 15.6892 90.0075 15.9342 90.3672 15.9342H92.4713C92.8539 15.9342 93.049 15.6464 93.049 15.3625C93.049 15.0786 92.8616 14.7948 92.4713 14.7948H90.964V13.5386H92.303C92.6932 13.5386 92.896 13.2509 92.896 12.967C92.896 12.6831 92.7009 12.3992 92.303 12.3992H90.964V11.1936H92.3986C92.7812 11.1936 92.9763 10.9059 92.9763 10.6259C92.9763 10.3459 92.7889 10.0542 92.3986 10.0542H90.3786H90.3748Z" fill="black"/>
<path d="M91.9739 8.69318L92.0389 8.72429C92.1766 8.79818 92.2685 8.9304 92.2685 9.05484C92.2685 9.34262 92.081 9.65762 91.8361 9.65762C91.7673 9.65762 91.7405 9.65762 91.7175 9.64984C91.7022 9.64596 91.6831 9.63818 91.6602 9.6304C91.6295 9.61873 91.5875 9.59929 91.5148 9.57595L90.6004 9.21429C90.3709 9.13262 90.2676 8.9654 90.2676 8.72818C90.2676 8.50651 90.4627 8.21484 90.7075 8.21484C90.7955 8.21484 90.895 8.24595 91.0174 8.29651L91.9777 8.69318H91.9739Z" fill="black"/>
<path d="M93.3362 10.902C93.2941 10.797 93.2788 10.7114 93.2788 10.5987C93.2788 10.2526 93.581 10.0037 93.9062 10.0037C94.1817 10.0037 94.3538 10.1864 94.461 10.4081L95.7235 13.842L96.986 10.4081C97.0931 10.1864 97.2614 10.0037 97.5407 10.0037C97.8697 10.0037 98.1681 10.2526 98.1681 10.5987C98.1681 10.7153 98.1528 10.797 98.1107 10.902L96.3241 15.5026C96.2208 15.767 96.0831 15.9809 95.7235 15.9809C95.3638 15.9809 95.2261 15.767 95.1228 15.5026L93.3362 10.902Z" fill="black"/>
<path d="M98.6655 10.7736C98.6655 10.3614 98.8682 10.0542 99.3005 10.0542H101.321C101.711 10.0542 101.898 10.3342 101.898 10.6259C101.898 10.9175 101.703 11.1936 101.321 11.1936H99.8859V12.3992H101.221C101.619 12.3992 101.814 12.6792 101.814 12.967C101.814 13.2548 101.611 13.5386 101.221 13.5386H99.8859V14.7948H101.393C101.783 14.7948 101.971 15.0748 101.971 15.3625C101.971 15.6503 101.776 15.9342 101.393 15.9342H99.2891C98.9294 15.9342 98.6616 15.6853 98.6616 15.3159V10.7736H98.6655Z" fill="black"/>
<path fill-rule="evenodd" clip-rule="evenodd" d="M58.2691 7.37874C59.1529 8.35096 59.4015 9.63041 59.4398 10.9137C59.4398 11.536 59.4015 12.1426 59.2676 12.691C59.0572 13.5893 58.6555 14.301 58.0204 14.9076C57.1749 15.7126 56.0425 16.0237 54.6997 16.0237C52.9743 16.0237 51.8763 15.4015 51.2641 14.7949C49.9596 13.531 49.9404 11.6643 49.9404 11.0576C49.9404 10.3615 49.9787 8.56485 51.2641 7.33985C51.8036 6.80707 52.9169 6.05652 54.8336 6.05652C56.1382 6.05652 57.4236 6.46096 58.2691 7.37485V7.37874ZM56.9071 13.426C57.3471 12.6015 57.3701 11.3726 57.3471 10.9876C57.3471 10.5287 57.2706 9.30374 56.7885 8.49485C56.4251 7.92707 55.8091 7.45263 54.7341 7.45263C54.3707 7.45263 53.2956 7.48763 52.6223 8.5143C52.1058 9.26485 52.0446 10.3265 52.0446 11.0965C52.0446 11.8665 52.0637 13.6787 53.5787 14.4137C53.923 14.5771 54.3286 14.651 54.7112 14.651C55.4189 14.651 56.3409 14.4293 56.8995 13.4221L56.9071 13.426Z" fill="black"/>
</g>
<defs>
<clipPath id="clip0_127_1735">
<rect width="101" height="28" fill="white" transform="translate(0.974609 0.46814)"/>
</clipPath>
</defs>
</svg>
